<?xml version="1.0" encoding="utf-8"?>
<!-- Generator: Adobe Illustrator 26.1.0, SVG Export Plug-In . SVG Version: 6.00 Build 0)  -->
<svg version="1.1" xmlns="http://www.w3.org/2000/svg" xmlns:xlink="http://www.w3.org/1999/xlink" x="0px" y="0px"
	 viewBox="0 0 1920 1080" style="enable-background:new 0 0 1920 1080;" xml:space="preserve">
<style type="text/css">
	.st0{fill:#E5E2E2;}
	.st1{fill:#F08787;}
	.st2{display:none;}
	.st3{fill:none;stroke:#000000;stroke-width:0.5;stroke-linecap:round;stroke-linejoin:round;}
</style>
<g id="Layer_1">
	<g>
		<g id="XMLID_00000085216585846506888940000014758288493373946027_">
			<g>
				<path class="st0" d="M873.56,422.45c7.24,37.9-17.58,74.66-55.26,81.86c-37.9,7.24-74.68-17.58-81.88-55.26
					c-5.42-28.3,6.43-56.07,30.68-71.91c15.32-10.01,33-13.45,51.2-9.97C845.9,372.45,868.29,394.85,873.56,422.45z"/>
				<polygon class="st0" points="1170,908.25 1170,995.75 960,995.75 750,995.75 750,908.25 750,820.75 802.5,820.75 855,820.75 
					855,768.25 855,715.75 960,715.75 1065,715.75 1065,768.25 1065,820.75 1117.5,820.75 1170,820.75 				"/>
				<polygon class="st0" points="1065,120.75 1065,155.75 960,155.75 855,155.75 855,120.75 855,85.75 960,85.75 1065,85.75 				"/>
				<path class="st0" d="M1309.5,435.75v218.5l-2.64,5.6c-3.72,7.9-9.06,13.37-16.76,17.15l-6.6,3.25H960H636.5l-5.5-2.72
					c-8.4-4.15-13.46-9.03-17.19-16.58l-3.31-6.7v-218.5v-218.5l2.62-5.6c4.59-9.8,11.98-16.3,22.18-19.49
					c3.45-1.08,61.9-1.28,326.2-1.11l322,0.2l5.6,2.64c7.9,3.72,13.37,9.06,17.16,16.76l3.24,6.6V435.75z M909.4,435.75
					c0-12.9-0.38-16.98-2.29-24.3c-10.24-39.4-38.35-67.7-77.11-77.63c-8.4-2.16-29.6-3.52-38-2.44
					c-22.2,2.84-45.46,14.48-61.51,30.77c-13.58,13.79-22.52,29.7-27.59,49.1c-3.37,12.9-3.39,36-0.05,48.8
					c10.32,39.5,38.38,67.59,77.75,77.84c12.95,3.37,35.9,3.36,48.9-0.02c39.41-10.27,67.29-38.22,77.61-77.82
					C909.02,452.72,909.4,448.65,909.4,435.75z"/>
				<path class="st1" d="M1450,435.65c0,61.8,0.14,60.28-6.2,65.62c-8.56,7.21-20.89,4.88-26.52-5.02l-2.28-4v-56.2
					c0-37.3,0.36-57.14,1.06-59c1.4-3.69,5.64-8.16,9.44-9.94c4.9-2.29,12.79-1.27,17.1,2.23
					C1450.34,375.63,1450,372.55,1450,435.65z"/>
				<path class="st1" d="M1396.99,310.75c1.36,7.2,1.33,242.8-0.03,250c-1.31,6.9-4.77,11.37-10.46,13.54
					c-8.4,3.2-18.21-0.45-22.1-8.24c-1.83-3.67-1.91-8.1-2.15-126.7c-0.16-78.9,0.1-124.84,0.74-128.3c1.24-6.8,4.19-11,9.41-13.41
					c2.3-1.06,5.64-1.89,7.6-1.89c4.8,0,11.27,3.17,13.86,6.8C1395.05,304.22,1396.44,307.85,1396.99,310.75z"/>
				<path class="st1" d="M1344.5,435.75v253.5l-2.67,5.7c-3.43,7.3-10.33,14.2-17.63,17.62l-5.7,2.68l-109.25,0.25L1100,715.75
					v34.95v34.95l39.25,0.3l39.25,0.3l6.7,3.27c7.71,3.77,12.81,9.03,16.69,17.23l2.61,5.5v96v96l-2.61,5.5
					c-3.88,8.2-8.98,13.45-16.69,17.22l-6.7,3.28H960H741.5l-5.6-2.64c-7.9-3.72-13.37-9.07-17.16-16.76l-3.24-6.6v-96v-96l3.24-6.6
					c3.79-7.7,9.26-13.04,17.16-16.76l5.6-2.64l39.25-0.3l39.25-0.3V750.7v-34.95l-109.25-0.25l-109.25-0.25l-6.6-3.25
					c-7.7-3.78-13.04-9.25-16.76-17.15l-2.64-5.6v-253.5v-253.5l3.24-6.6c3.79-7.7,9.26-13.04,17.16-16.76l5.6-2.64L710.7,156
					l109.2-0.25l0.3-39.25l0.3-39.25l2.59-5.5c4.61-9.8,12.01-16.32,22.21-19.57c3.4-1.08,25.6-1.29,116.2-1.13l112,0.2l5.6,2.64
					c7.9,3.72,13.37,9.06,17.16,16.76l3.24,6.6l0.3,39.25l0.3,39.25l109.2,0.25l109.2,0.25l5.6,2.64
					c7.9,3.72,13.37,9.06,17.16,16.76l3.24,6.6V435.75z M1309.5,654.25v-218.5v-218.5l-3.24-6.6c-3.79-7.7-9.26-13.04-17.16-16.76
					l-5.6-2.64l-322-0.2c-264.3-0.17-322.75,0.03-326.2,1.11c-10.2,3.19-17.59,9.69-22.18,19.49l-2.62,5.6v218.5v218.5l3.31,6.7
					c3.73,7.55,8.79,12.43,17.19,16.58l5.5,2.72H960h323.5l6.6-3.25c7.7-3.78,13.04-9.25,16.76-17.15L1309.5,654.25z M1170,995.75
					v-87.5v-87.5h-52.5H1065v-52.5v-52.5H960H855v52.5v52.5h-52.5H750v87.5v87.5h210H1170z M1065,155.75v-35v-35H960H855v35v35h105
					H1065z"/>
				<path class="st1" d="M907.11,411.45c1.91,7.32,2.29,11.4,2.29,24.3s-0.38,16.97-2.29,24.3c-10.32,39.6-38.2,67.55-77.61,77.82
					c-13,3.38-35.95,3.39-48.9,0.02c-39.37-10.25-67.43-38.34-77.75-77.84c-3.34-12.8-3.32-35.9,0.05-48.8
					c5.07-19.4,14.01-35.31,27.59-49.1c16.05-16.29,39.31-27.93,61.51-30.77c8.4-1.08,29.6,0.28,38,2.44
					C868.76,343.75,896.87,372.05,907.11,411.45z M818.3,504.31c37.68-7.2,62.5-43.96,55.26-81.86c-5.27-27.6-27.66-50-55.26-55.28
					c-18.2-3.48-35.88-0.04-51.2,9.97c-24.25,15.84-36.1,43.61-30.68,71.91C743.62,486.73,780.4,511.55,818.3,504.31z"/>
				<path class="st1" d="M556.99,310.75c1.36,7.2,1.33,242.8-0.03,250c-1.31,6.9-4.77,11.37-10.46,13.54
					c-8.4,3.2-18.21-0.45-22.1-8.24c-1.83-3.67-1.91-8.1-2.15-126.7c-0.16-78.9,0.1-124.84,0.74-128.3c1.24-6.8,4.19-11,9.41-13.41
					c2.3-1.06,5.64-1.89,7.6-1.89c4.8,0,11.27,3.17,13.86,6.8C555.05,304.22,556.44,307.85,556.99,310.75z"/>
				<path class="st1" d="M505,435.55c0,61.5,0.1,60.42-5.9,65.47c-8.9,7.49-21.08,5.33-26.82-4.77l-2.28-4v-56.2
					c0-37.3,0.36-57.14,1.06-59c1.4-3.69,5.64-8.16,9.44-9.94c4.9-2.29,12.79-1.27,17.1,2.23C505.34,375.63,505,372.55,505,435.55z"
					/>
			</g>
			<g>
			</g>
		</g>
		<path class="st2" d="M1122,331.38c-22.2,2.84-45.46,14.48-61.51,30.77c-13.58,13.79-22.52,29.7-27.59,49.1
			c-3.37,12.9-3.39,36.01-0.05,48.8c10.32,39.5,38.38,67.59,77.75,77.84c12.95,3.37,35.9,3.36,48.9-0.03
			c39.41-10.26,67.29-38.22,77.61-77.82c1.91-7.32,2.29-11.4,2.29-24.3c0-12.9-0.38-16.98-2.29-24.3
			c-10.24-39.4-38.35-67.7-77.11-77.63C1151.6,331.66,1130.4,330.3,1122,331.38L1122,331.38z M1148.3,367.17
			c27.6,5.28,49.99,27.68,55.26,55.28c7.24,37.9-17.58,74.67-55.26,81.86c-37.9,7.24-74.68-17.58-81.88-55.26
			c-5.41-28.3,6.43-56.07,30.68-71.91C1112.42,367.13,1130.1,363.69,1148.3,367.17L1148.3,367.17z"/>
	</g>
	<g id="XMLID_00000062175565968500385600000009256531507038128317_">
		<g>
			<path class="st1" d="M1212.53,412.66c1.91,7.33,2.29,11.4,2.29,24.3s-0.38,16.98-2.29,24.3c-10.32,39.6-38.2,67.56-77.61,77.82
				c-13,3.39-35.95,3.4-48.9,0.03c-39.37-10.26-67.43-38.35-77.75-77.85c-3.34-12.79-3.32-35.9,0.05-48.8
				c5.07-19.4,14.01-35.31,27.6-49.1c16.04-16.29,39.3-27.92,61.5-30.77c8.4-1.07,29.6,0.29,38,2.44
				C1174.19,344.97,1202.3,373.26,1212.53,412.66z M1123.72,505.53c37.68-7.2,62.5-43.97,55.26-81.87
				c-5.27-27.6-27.66-49.99-55.26-55.28c-18.2-3.48-35.88-0.04-51.2,9.97c-24.25,15.85-36.09,43.61-30.68,71.91
				C1049.05,487.94,1085.82,512.76,1123.72,505.53z"/>
			<path class="st0" d="M1178.98,423.66c7.24,37.9-17.58,74.67-55.26,81.87c-37.9,7.23-74.67-17.59-81.88-55.27
				c-5.41-28.3,6.43-56.06,30.68-71.91c15.32-10.01,33-13.45,51.2-9.97C1151.32,373.67,1173.71,396.06,1178.98,423.66z"/>
		</g>
		<g>
			<path class="st3" d="M1097.42,332.59c-22.2,2.85-45.46,14.48-61.5,30.77c-13.59,13.79-22.53,29.7-27.6,49.1
				c-3.37,12.9-3.39,36.01-0.05,48.8c10.32,39.5,38.38,67.59,77.75,77.85c12.95,3.37,35.9,3.36,48.9-0.03
				c39.41-10.26,67.29-38.22,77.61-77.82c1.91-7.32,2.29-11.4,2.29-24.3s-0.38-16.97-2.29-24.3c-10.23-39.4-38.34-67.69-77.11-77.63
				C1127.02,332.88,1105.82,331.52,1097.42,332.59z"/>
			<path class="st3" d="M1123.72,368.38c27.6,5.29,49.99,27.68,55.26,55.28c7.24,37.9-17.58,74.67-55.26,81.87
				c-37.9,7.23-74.67-17.59-81.88-55.27c-5.41-28.3,6.43-56.06,30.68-71.91C1087.84,368.34,1105.52,364.9,1123.72,368.38z"/>
		</g>
	</g>
</g>
<g id="Layer_3">
</g>
<g id="Layer_2">
</g>
</svg>
