<?xml version="1.0" encoding="utf-8"?>
<!-- Generator: Adobe Illustrator 26.1.0, SVG Export Plug-In . SVG Version: 6.00 Build 0)  -->
<svg version="1.1" xmlns="http://www.w3.org/2000/svg" xmlns:xlink="http://www.w3.org/1999/xlink" x="0px" y="0px"
	 viewBox="0 0 1000 1000" style="enable-background:new 0 0 1000 1000;" xml:space="preserve">
<style type="text/css">
	.st0{fill:#B3CEAB;}
	.st1{fill:#E8EDE6;}
</style>
<g id="Layer_2">
</g>
<g id="Layer_1">
	<g transform="translate(0.000000,511.000000) scale(0.100000,-0.100000)">
		<path class="st0" d="M3103.8,4376.5v-632.1H5000h1896.2v632.1v632.1H5000H3103.8V4376.5z"/>
		<g id="XMLID_00000106134862393080893830000007764224126279054723_">
			<g>
				<polygon class="st1" points="6580.2,4376.5 6580.2,4060.5 5000,4060.5 3419.8,4060.5 3419.8,4376.5 3419.8,4692.5 5000,4692.5 
					6580.2,4692.5 				"/>
			</g>
			<g>
			</g>
		</g>
		<path class="st0" d="M3103.8,2796.3v-632.1H5000h1896.2v632.1v632.1H5000H3103.8V2796.3z"/>
		<g id="XMLID_00000049195666172969748390000006748400149799497919_">
			<g>
				<polygon class="st1" points="6580.2,2796.3 6580.2,2480.3 5000,2480.3 3419.8,2480.3 3419.8,2796.3 3419.8,3112.3 5000,3112.3 
					6580.2,3112.3 				"/>
			</g>
			<g>
			</g>
		</g>
		<g id="XMLID_00000180335464533177858360000012052019430304396200_">
			<g>
				<polygon class="st1" points="6580.2,1216.1 6580.2,900.1 5000,900.1 3419.8,900.1 3419.8,1216.1 3419.8,1532.1 5000,1532.1 
					6580.2,1532.1 				"/>
				<path class="st0" d="M9875-1659.8c33.6-116.5,33.6-2032.5,0-2149c-31.6-108.6-215.3-292.3-323.9-323.9
					c-55.4-15.8-264.7-23.7-657.8-23.7h-574.8v-158v-158h158h158v-158v-158h-790.1h-790.1v158v158h158h158v158v158h-574.8
					c-393.1,0-602.5,7.9-657.8,23.7c-116.5,33.6-292.3,215.3-325.9,331.8c-17.8,67.2-21.8,345.7-17.8,1106.1
					c6,1133.8,0,1084.4,148.3,1230.7c142.2,144.2,126.4,142.2,969.8,148.1c598.5,3.9,754.5,9.9,754.5,31.6
					c0,57.2-65.2,205.4-128.4,292.3c-92.8,126.4-231.1,225.2-383.2,272.6C7034.6-682,6977.3-680,4998.1-680
					c-2002.8,0-2036.4,0-2154.9-41.5c-256.8-86.9-456.3-296.3-503.7-533.3l-9.9-57.3h724.9c511.5,0,750.5-7.9,807.8-23.7
					c108.6-31.6,292.3-215.3,323.9-323.9c33.6-116.5,33.6-2032.5,0-2149c-31.6-108.6-215.3-292.3-323.9-323.9
					c-55.3-15.8-264.6-23.7-657.7-23.7h-574.8v-158v-158h158h158v-158v-158h-790.1h-790.1v158v158h158h158v158v158h-574.8
					c-393,0-602.4,7.9-657.7,23.7c-108.6,31.6-292.3,215.3-323.9,323.9c-33.6,116.5-33.6,2032.5,0,2149
					c31.6,108.6,215.3,292.3,323.9,323.9c57.3,15.8,300.2,23.7,821.7,23.7h738.7l25.7,100.7c45.4,173.8,154.1,365.4,286.4,499.7
					c138.2,138.3,248.9,211.3,444.4,286.4l130.4,51.4l973.8,5.9l971.8,5.9V112v472.1h-869.1h-869.1v632v632.2H5000h1896.4v-632.1
					V584.1h-869.1h-869.1V112v-474.3l973.8-5.9l971.8-5.9l130.4-51.3c195.5-75.1,306.1-148.1,444.4-286.4
					c132.3-134.3,241-325.9,286.4-499.7l25.7-100.7h738.7c521.5,0,764.4-7.9,821.7-23.7C9659.7-1367.5,9843.4-1551.2,9875-1659.8z
					 M9582.5-3642.9v118.5H7844.3H6106.1v-118.5c0-92.8,7.9-126.4,39.5-158c39.5-39.5,65.2-39.5,1698.7-39.5s1659.2,0,1698.7,39.5
					C9574.6-3769.3,9582.5-3735.7,9582.5-3642.9z M9582.5-3208.4v750.6c0,724.9-2,752.6-39.5,790.1
					c-39.5,39.5-65.2,39.5-1698.7,39.5s-1659.2,0-1698.7-39.5c-37.5-37.6-39.5-65.2-39.5-790.1v-750.6h1738.2H9582.5z
					 M8002.3-4472.5v158v158h-158h-158v-158v-158h158H8002.3z M6580.2,900.1v316v316H5000H3419.8v-316v-316H5000H6580.2z
					 M3893.9-3642.9v118.5H2155.7H417.5v-118.5c0-92.8,7.9-126.4,39.5-158c39.5-39.5,65.2-39.5,1698.7-39.5s1659.2,0,1698.7,39.5
					C3886-3769.3,3893.9-3735.7,3893.9-3642.9z M3893.9-3208.4v750.6c0,724.9-2,752.6-39.5,790.1c-39.5,39.5-65.2,39.5-1698.7,39.5
					s-1659.2,0-1698.7-39.5c-37.5-37.6-39.5-65.2-39.5-790.1v-750.6h1738.2H3893.9z M2313.7-4472.5v158v158h-158h-158v-158v-158h158
					H2313.7z"/>
				<path class="st1" d="M9582.5-3524.4v-118.5c0-92.8-7.9-126.4-39.5-158c-39.5-39.5-65.2-39.5-1698.7-39.5s-1659.2,0-1698.7,39.5
					c-31.6,31.6-39.5,65.2-39.5,158v118.5h1738.2H9582.5z"/>
				<path class="st1" d="M9582.5-2457.8v-750.6H7844.3H6106.1v750.6c0,724.9,2,752.5,39.5,790.1c39.5,39.5,65.2,39.5,1698.7,39.5
					s1659.2,0,1698.7-39.5C9580.5-1705.2,9582.5-1732.9,9582.5-2457.8z"/>
				<path class="st1" d="M3893.9-3524.4v-118.5c0-92.8-7.9-126.4-39.5-158c-39.5-39.5-65.2-39.5-1698.7-39.5s-1659.2,0-1698.7,39.5
					c-31.6,31.6-39.5,65.2-39.5,158v118.5h1738.2H3893.9z"/>
				<path class="st1" d="M3893.9-2457.8v-750.6H2155.7H417.5v750.6c0,724.9,2,752.5,39.5,790.1c39.5,39.5,65.2,39.5,1698.7,39.5
					s1659.2,0,1698.7-39.5C3891.9-1705.2,3893.9-1732.9,3893.9-2457.8z"/>
			</g>
			<g>
			</g>
		</g>
	</g>
</g>
</svg>
