<?xml version="1.0" encoding="utf-8"?>
<!-- Generator: Adobe Illustrator 26.1.0, SVG Export Plug-In . SVG Version: 6.00 Build 0)  -->
<svg version="1.1" id="Layer_1" xmlns="http://www.w3.org/2000/svg" xmlns:xlink="http://www.w3.org/1999/xlink" x="0px" y="0px"
	 viewBox="0 0 1000 1000" style="enable-background:new 0 0 1000 1000;" xml:space="preserve">
<style type="text/css">
	.st0{fill:#BAD0E2;}
</style>
<g transform="translate(0.000000,512.000000) scale(0.100000,-0.100000)">
	<g id="XMLID_00000031179630776552717260000009740377429735529868_">
		<g>
			<path class="st0" d="M7969.7,2448.2c51.8-247.4,72.9-755.4,40.3-1016.2c-67.1-525.3-270.3-1046.8-575.2-1474.4
				c-59.4-84.4-193.7-243.5-299.1-352.8c-458.3-479.3-1010.4-780.4-1693-928c-178.3-38.4-256.9-44.1-617.4-44.1
				c-354.7,1.9-440.9,7.7-613.5,44.1c-801.4,174.4-1461,590.5-1936.5,1221.3c-425.7,567.5-640.4,1215.6-638.5,1926.9
				c1.9,642.3,170.7,1207.9,517.7,1744.8c548.4,845.6,1457.2,1369,2507.9,1445.7c268.4,19.2,671-24.9,983.5-105.4
				C6817.4,4609.1,7712.8,3660,7969.7,2448.2z M6965.1,1384.1c47.9,222.4,47.9,640.4,0,862.8c-191.7,891.5-880,1558.8-1771.6,1716
				c-310.7,53.7-688.4,28.8-999-65.1c-534.9-163-1014.3-558-1284.6-1056.5c-99.7-184.1-203.2-502.3-233.9-707.5
				c-34.5-245.4-13.5-640.4,47.9-862.8C2952.1,444.6,3581-142.1,4432.3-326.1c174.4-36.4,638.4-30.7,834,9.6
				C6119.5-134.4,6786.7,532.8,6965.1,1384.1z"/>
		</g>
		<g>
		</g>
	</g>
	<path class="st0" d="M4269.3,2975.5c-285.7-26.8-569.4-128.5-780.4-279.9c-320.2-228.2-441-592.4-295.3-899.2
		c65.2-141.9,205.2-299.1,358.5-404.6c117-80.5,138-128.5,105.5-237.8c-21.1-70.9-209-268.4-253.1-268.4c-11.5,0-13.4-7.7-7.7-19.2
		c5.7-9.6,53.7-19.2,103.5-19.2c232,0,467.8,90.1,611.6,232l80.5,80.5l226.2-3.8c281.8-5.8,462.1,30.7,665.3,130.4
		c368.1,184.1,542.6,513.8,487,918.4C5498.3,2728.2,4967.2,3042.6,4269.3,2975.5z"/>
	<path class="st0" d="M5515.6,2718.6c0-3.8,30.7-70.9,67.1-147.6c126.5-270.3,164.9-517.7,116.9-745.8
		c-42.2-199.4-115-335.5-251.2-471.7c-189.8-191.7-412.2-283.8-776.5-324l-201.3-21.1l143.8-69c232-113.1,523.4-157.2,724.7-109.3
		c80.5,17.3,88.2,15.3,153.4-44.1c174.5-157.2,352.8-218.6,588.6-201.3c232,17.3,239.7,23,103.5,113.1
		c-128.4,86.3-209,189.8-209,268.4c0,42.2,21.1,65.2,103.5,118.9c218.6,147.6,372,358.5,412.2,571.4
		c76.7,416.1-281.8,862.8-830.2,1029.6C5521.3,2728.2,5515.6,2730.1,5515.6,2718.6z"/>
	<path class="st0" d="M6947.8-1089.2c-28.8-9.6-113.1-55.6-186-103.5c-216.7-141.9-544.5-297.2-822.5-387.3
		c-299.1-97.8-366.2-147.6-366.2-272.2c0-90.1,1079.5-2438.8,1184.9-2576.9c191.7-253.1,529.2-389.2,843.6-341.3
		c496.6,76.7,845.6,569.5,743.9,1048.8c-40.3,191.7-1129.3,2544.3-1200.2,2594.1C7083.9-1083.5,7014.9-1070,6947.8-1089.2z"/>
</g>
</svg>
