<?xml version="1.0" encoding="utf-8"?>
<!-- Generator: Adobe Illustrator 26.1.0, SVG Export Plug-In . SVG Version: 6.00 Build 0)  -->
<svg version="1.1" id="Layer_1" xmlns="http://www.w3.org/2000/svg" xmlns:xlink="http://www.w3.org/1999/xlink" x="0px" y="0px"
	 viewBox="0 0 1000 1000" style="enable-background:new 0 0 1000 1000;" xml:space="preserve">
<style type="text/css">
	.st0{fill:#7594CC;}
	.st1{fill:#C5DBE8;}
</style>
<g>
	<path class="st0" d="M291.7,883.8c-8.2,32.7-20.4,85.7-36.7,106.2c28.6,0,175.6-4.1,191.9-61.3c20.4-73.5-61.3-57.2-61.3-57.2
		S304,847.1,291.7,883.8z"/>
	<path class="st0" d="M549,606.2C451,504.1,377.5,500,377.5,500L214.2,622.5c0,0,40.8,40.8,53.1,73.5
		C365.3,671.5,549,606.2,549,606.2z"/>
	<path class="st1" d="M875.7,67.2h-49C826.7,230.5,937,304,937,398c0,61.3-32.7,110.3-89.8,110.3c-57.2,0-122.5-57.2-93.9-138.8
		l40.8,24.5l-36.8-98c-40.8,28.6-53.1,77.6-53.1,102.1c0,77.6,65.3,142.9,142.9,142.9S990,475.7,990,398.1
		C990,299.9,875.7,226.4,875.7,67.2z"/>
	<path class="st0" d="M863.4,732.8c-57.2-61.3-163.3-151.1-367.5-151.1c-179.7,0-404.2,204.2-404.2,204.2S328.5,990,508.2,990
		c106.2,0,277.7-73.5,338.9-130.7l-53.1-53L863.4,732.8z M683.8,785.8c-32.7,0-61.3-28.6-61.3-61.3s28.6-61.3,61.3-61.3
		s61.3,28.6,61.3,61.3C745,757.2,716.4,785.8,683.8,785.8z M683.8,736.8c-20.4,0-36.8-16.3-36.8-36.7s16.3-36.8,36.8-36.8
		s36.8,16.3,36.8,36.8C720.5,720.5,704.2,736.8,683.8,736.8z"/>
	<path class="st0" d="M10,622.5c28.6,44.9,44.9,102.1,44.9,163.3S38.6,904.3,10,949.2c93.9-12.2,163.3-77.6,163.3-163.3
		C173.3,700.1,103.9,634.7,10,622.5z"/>
	<path class="st1" d="M847.1,10c22.6,0,40.8,18.3,40.8,40.8c0,22.6-18.3,40.8-40.8,40.8c-22.6,0-40.8-18.3-40.8-40.8
		S824.5,10,847.1,10z"/>
</g>
</svg>
