<?xml version="1.0" encoding="utf-8"?>
<!-- Generator: Adobe Illustrator 26.1.0, SVG Export Plug-In . SVG Version: 6.00 Build 0)  -->
<svg version="1.1" id="Layer_1" xmlns="http://www.w3.org/2000/svg" xmlns:xlink="http://www.w3.org/1999/xlink" x="0px" y="0px"
	 viewBox="0 0 1000 1000" style="enable-background:new 0 0 1000 1000;" xml:space="preserve">
<style type="text/css">
	.st0{fill:#60717C;}
	.st1{fill:#CCDFED;}
	.st2{fill:#AD997F;}
	.st3{fill:#A88585;}
</style>
<g transform="translate(0.000000,511.000000) scale(0.100000,-0.100000)">
	<path class="st0" d="M4209.8,4742.2c25.7-528.3,182-1028.9,455.1-1464.2c43.5-69.3,453.1-599.6,910.2-1177.3L6404.2,1050
		l-1618.6-5.9c-888.4-2-1620.6-2-1624.5,2c-2,4,23.7,97,61.3,205.8l67.3,197.9l-282.9,112.8c-284.9,112.8-368,170.2-391.8,265.1
		c-17.8,71.2,25.7,186,95,255.3l65.3,65.3h288.9H3353l98.9,197.9c81.1,160.3,118.7,277,199.9,595.6c55.4,219.6,97,399.7,93,403.7
		c-23.7,21.8-811.3,405.6-833,405.6c-13.9,0-150.4-126.6-304.7-281l-279-283l-554-1110.1L1220,966.8l-118.7-43.5
		C832.1,826.3,525.4,571,345.4,296C173.2,30.8,100-216.5,100-543s73.2-573.8,245.4-839c178.1-271.1,480.8-526.3,747.9-625.3
		c308.7-116.7,87.1-106.9,3088.8-118.7l2760.3-9.9l-577.8-346.3l-577.8-346.3V-2971v-142.5L5397-2877.9l-391.8,233.5l-5.9-470.9
		l-4-472.9l-391.8,235.5l-389.8,233.5l-5.9-391.8l-4-393.8L3812-3669.3l-389.8,233.5l-5.9-391.8l-4-393.8l-391.8,235.5l-389.8,233.5
		l-5.9-253.3l-5.9-253.3l-188-122.7C2328-4451,2239-4514.3,2233-4522.2c-9.9-15.8,142.5-255.3,162.3-255.3c4,0,128.6,81.1,275,178.1
		c241.4,162.3,267.1,184,267.1,237.4v57.4l391.8-235.5l389.8-233.5l5.9,391.8l4,393.8l391.8-235.5l389.8-233.5l5.9,391.8l4,393.8
		l391.8-235.5l389.8-233.5l5.9,470.9l4,472.9l391.8-235.5l389.8-233.5l9.9,334.4l9.9,334.4l726.2,435.3l726.2,435.3H8001
		c292.8,0,480.8,9.9,579.7,27.7c686.6,132.6,1205,676.7,1305.9,1367.3C9987.6-26.5,9502.8,729.3,8806.3,951
		c-87.1,27.7-180,57.4-203.8,65.3c-25.7,7.9-664.8,789.5-1515.7,1854.1C6277.5,3883.5,5579,4740.3,5535.5,4775.9
		c-106.8,85.1-306.7,176.1-439.3,201.8c-59.4,9.9-284.9,19.8-502.6,19.8h-395.7L4209.8,4742.2z"/>
	<g id="XMLID_00000080889359574261496150000010262844130071473082_">
		<g>
			<path class="st1" d="M3386.6,3171.1l-63.3-249.3c-33.6-136.5-87.1-294.8-114.8-350.2l-51.5-102.9l-203.8-7.9
				c-233.5-9.9-336.4-45.5-467-162.2c-178.1-160.3-219.6-421.5-102.9-656.9c77.2-156.3,152.4-223.6,348.3-304.7
				c87.1-35.6,158.3-67.3,162.2-69.3c4-4-7.9-55.4-27.7-116.7l-35.6-110.8H2221h-609.4l486.8,975.5l486.8,973.5l190,193.9
				c104.9,104.9,193.9,191.9,195.9,191.9c4-0.1,97-45.6,209.7-103L3386.6,3171.1z"/>
		</g>
		<g>
		</g>
	</g>
	<g id="XMLID_00000075866784228536280220000011928385605338655915_">
		<g>
			<path class="st1" d="M8127.7,1065.7c13.9-19.8-118.7-25.7-651-25.7l-670.8,2l-890.4,1129.8c-488.8,621.3-930,1187.2-975.5,1260.4
				c-225.6,342.3-356.2,710.4-409.6,1145.7l-13.9,102.9h269.1c219.6,0,286.9-7.9,372-39.5c57.4-21.8,136.5-69.3,178.1-104.9
				C5385.2,4492.9,7640.9,1689,8127.7,1065.7z"/>
		</g>
		<g>
		</g>
	</g>
	<g id="XMLID_00000141428147729014015620000002406814960908796559_">
		<g>
			<path class="st2" d="M9445.5,48.7c373.9-759.8-37.6-1660.2-839-1828.3c-207.8-43.5-7014.5-43.5-7222.3,0
				c-801.4,168.1-1213,1068.4-839,1828.3c156.3,318.6,480.8,569.9,829.1,643.1c197.9,43.5,7030.3,43.5,7232.2,1.9
				C8962.7,618.5,9287.2,371.2,9445.5,48.7z"/>
		</g>
		<g>
		</g>
	</g>
	<path d="M5472.2,3729.1l-120.7-100.9l164.2-199.8c91-110.8,411.6-502.6,712.3-868.7l546.2-668.8l118.7,100.9l120.7,100.9
		l-164.2,199.8c-91,110.8-411.6,502.6-712.3,868.7L5590.9,3830L5472.2,3729.1z"/>
	<path d="M1504.9,228.7c-227.6-57.4-445.2-241.4-552.1-470.9C897.4-359,889.5-394.6,889.5-543s7.9-184,63.3-300.8
		c87.1-186,215.7-316.6,399.7-407.6c136.5-67.3,162.3-73.2,318.6-73.2s182,5.9,318.6,73.2c184,91,312.6,221.6,399.7,407.6
		c55.4,116.8,63.3,152.4,63.3,300.8s-7.9,184-63.3,300.8c-130.6,277-389.8,463-668.8,480.8C1643.4,242.6,1548.4,238.6,1504.9,228.7z
		"/>
	<g id="XMLID_00000117637972164690003630000002224587674085232794_">
		<g>
			<path class="st3" d="M1851.2-97.8c391.8-138.5,391.8-751.9,0-890.4c-399.7-140.5-748,195.9-633.2,611.4
				c27.7,98.9,164.2,243.4,265.1,279C1588-60.2,1744.3-60.2,1851.2-97.8z"/>
		</g>
		<g>
		</g>
	</g>
	<path d="M8153.4,228.7c-227.6-57.4-445.2-241.4-552.1-470.9C7545.9-359,7538-394.6,7538-543s7.9-184,63.3-300.8
		c87.1-186,215.7-316.6,399.7-407.6c136.5-67.3,162.2-73.2,318.6-73.2c156.3,0,182,5.9,318.6,73.2c184,91,312.6,221.6,399.7,407.6
		c55.4,116.8,63.3,152.4,63.3,300.8s-7.9,184-63.3,300.8c-130.6,277-389.8,463-668.8,480.8C8291.9,242.6,8196.9,238.6,8153.4,228.7z
		"/>
	<g id="XMLID_00000149360393303960807290000002166686559031715723_">
		<g>
			<path class="st3" d="M8499.6-97.8c235.5-83.1,354.2-364.1,265.2-627.3c-104.9-302.7-546.1-393.7-785.6-160.3
				c-178.1,174.1-178.1,510.5,0,684.6C8107.8-76,8317.6-34.4,8499.6-97.8z"/>
		</g>
		<g>
		</g>
	</g>
	<path d="M2937.5-543v-158.3h1741.3H6420V-543v158.3H4678.7H2937.5V-543z"/>
	<path d="M6736.6-543v-158.3h158.3h158.3V-543v158.3h-158.3h-158.3V-543z"/>
</g>
</svg>
