<!-- <svg width="1200" height="200" viewBox="0 0 1200 200" fill="none" xmlns="http://www.w3.org/2000/svg">
<path d="M0 64L48 96C96 128 192 192 288 197.3C384 203 480 149 576 138.7C672 128 768 160 864 149.3C960 139 1056 85 1152 80C1248 75 1344 117 1392 138.7L1440 160V320H1392C1344 320 1248 320 1152 320C1056 320 960 320 864 320C768 320 672 320 576 320C480 320 384 320 288 320C192 320 96 320 48 320H0V64Z" fill="#23272A"/>
</svg> -->

<svg xmlns="http://www.w3.org/2000/svg" viewBox="0 0 1440 190">
  <path fill="#23272a" fill-opacity="1" d="M0,64L48,53.3C96,43,192,21,288,26.7C384,32,480,64,576,80C672,96,768,96,864,101.3C960,107,1056,117,1152,112C1248,107,1344,85,1392,74.7L1440,64L1440,320L1392,320C1344,320,1248,320,1152,320C1056,320,960,320,864,320C768,320,672,320,576,320C480,320,384,320,288,320C192,320,96,320,48,320L0,320Z"></path>
</svg>